<?xml version="1.0" encoding="UTF-8"?>
<!DOCTYPE svg PUBLIC "-//W3C//DTD SVG 1.1//EN" "http://www.w3.org/Graphics/SVG/1.1/DTD/svg11.dtd">
<svg xmlns="http://www.w3.org/2000/svg" version="1.1" width="577px" height="433px" style="shape-rendering:geometricPrecision; text-rendering:geometricPrecision; image-rendering:optimizeQuality; fill-rule:evenodd; clip-rule:evenodd" xmlns:xlink="http://www.w3.org/1999/xlink">
<g><path style="opacity:1" fill="#2e3153" d="M 309.5,141.5 C 308.662,141.842 308.328,142.508 308.5,143.5C 308.103,144.525 307.437,144.692 306.5,144C 304.93,142.603 303.596,141.103 302.5,139.5C 301.962,137.883 301.629,136.216 301.5,134.5C 292.86,133.452 284.194,132.952 275.5,133C 272.228,134.363 270.562,136.863 270.5,140.5C 269.322,143.198 267.489,145.531 265,147.5C 264.102,144.931 262.935,142.598 261.5,140.5C 258.2,134.202 258.033,127.869 261,121.5C 265.235,119.845 268.402,117.011 270.5,113C 283.787,104.53 295.954,105.697 307,116.5C 311.736,124.475 312.569,132.808 309.5,141.5 Z"/></g>
<g><path style="opacity:0.963" fill="#a08fe0" d="M 229.5,121.5 C 221.671,119.64 213.671,118.973 205.5,119.5C 200.489,119.334 195.489,119.501 190.5,120C 189.619,120.708 188.953,121.542 188.5,122.5C 187.511,127.975 187.178,133.642 187.5,139.5C 186.347,133.681 186.181,127.681 187,121.5C 187.833,120.667 188.667,119.833 189.5,119C 201.833,118.333 214.167,118.333 226.5,119C 227.942,119.377 228.942,120.21 229.5,121.5 Z"/></g>
<g><path style="opacity:1" fill="#896cf8" d="M 205.5,119.5 C 208.287,120.477 211.287,120.81 214.5,120.5C 214.5,121.5 214.5,122.5 214.5,123.5C 213.5,123.5 212.5,123.5 211.5,123.5C 210.923,122.227 210.257,122.227 209.5,123.5C 208.339,126.358 207.006,129.025 205.5,131.5C 203.589,131.574 202.422,132.574 202,134.5C 199.913,132.258 199.079,129.924 199.5,127.5C 201.93,125.704 201.93,124.037 199.5,122.5C 196.705,124.751 194.372,127.418 192.5,130.5C 193.952,131.94 194.952,133.606 195.5,135.5C 195.5,137.167 195.5,138.833 195.5,140.5C 193.208,140.756 191.041,140.423 189,139.5C 188.501,133.843 188.334,128.176 188.5,122.5C 188.953,121.542 189.619,120.708 190.5,120C 195.489,119.501 200.489,119.334 205.5,119.5 Z"/></g>
<g><path style="opacity:1" fill="#de8382" d="M 302.5,139.5 C 301.373,138.878 300.373,138.045 299.5,137C 292.762,136.716 286.095,135.883 279.5,134.5C 275.626,135.265 272.626,137.265 270.5,140.5C 270.562,136.863 272.228,134.363 275.5,133C 284.194,132.952 292.86,133.452 301.5,134.5C 301.629,136.216 301.962,137.883 302.5,139.5 Z"/></g>
<g><path style="opacity:1" fill="#927bee" d="M 205.5,119.5 C 213.671,118.973 221.671,119.64 229.5,121.5C 230.793,127.469 230.793,133.469 229.5,139.5C 228.373,140.122 227.373,140.955 226.5,142C 214.5,142.667 202.5,142.667 190.5,142C 189.473,141.487 188.473,140.987 187.5,140.5C 187.5,140.167 187.5,139.833 187.5,139.5C 187.178,133.642 187.511,127.975 188.5,122.5C 188.334,128.176 188.501,133.843 189,139.5C 191.041,140.423 193.208,140.756 195.5,140.5C 195.5,138.833 195.5,137.167 195.5,135.5C 197.384,135.712 198.717,136.712 199.5,138.5C 200.5,138.167 201.167,137.5 201.5,136.5C 199.833,134.5 198.167,132.5 196.5,130.5C 197.188,129.145 198.188,128.145 199.5,127.5C 199.079,129.924 199.913,132.258 202,134.5C 202.422,132.574 203.589,131.574 205.5,131.5C 205.643,133.262 205.309,134.929 204.5,136.5C 205.133,138.519 206.133,138.853 207.5,137.5C 209.043,132.874 210.376,128.207 211.5,123.5C 212.5,123.5 213.5,123.5 214.5,123.5C 214.5,122.5 214.5,121.5 214.5,120.5C 211.287,120.81 208.287,120.477 205.5,119.5 Z"/></g>
<g><path style="opacity:1" fill="#886cfa" d="M 207.5,137.5 C 209.919,134.213 211.752,130.547 213,126.5C 213.671,125.748 214.504,125.414 215.5,125.5C 220.569,128.482 220.736,131.815 216,135.5C 215.251,136.635 215.417,137.635 216.5,138.5C 218.817,136.684 220.984,134.684 223,132.5C 223.748,130.16 223.248,128.16 221.5,126.5C 220.945,124.271 219.611,122.605 217.5,121.5C 221.455,119.897 224.955,120.564 228,123.5C 228.667,128.5 228.667,133.5 228,138.5C 227.5,139 227,139.5 226.5,140C 218.833,140.667 211.167,140.667 203.5,140C 205.437,139.878 206.77,139.045 207.5,137.5 Z"/></g>
<g><path style="opacity:1" fill="#ded6fa" d="M 199.5,127.5 C 198.188,128.145 197.188,129.145 196.5,130.5C 198.167,132.5 199.833,134.5 201.5,136.5C 201.167,137.5 200.5,138.167 199.5,138.5C 198.717,136.712 197.384,135.712 195.5,135.5C 194.952,133.606 193.952,131.94 192.5,130.5C 194.372,127.418 196.705,124.751 199.5,122.5C 201.93,124.037 201.93,125.704 199.5,127.5 Z"/></g>
<g><path style="opacity:1" fill="#dfd5fd" d="M 211.5,123.5 C 210.376,128.207 209.043,132.874 207.5,137.5C 206.133,138.853 205.133,138.519 204.5,136.5C 205.309,134.929 205.643,133.262 205.5,131.5C 207.006,129.025 208.339,126.358 209.5,123.5C 210.257,122.227 210.923,122.227 211.5,123.5 Z"/></g>
<g><path style="opacity:1" fill="#e3d9fa" d="M 221.5,126.5 C 223.248,128.16 223.748,130.16 223,132.5C 220.984,134.684 218.817,136.684 216.5,138.5C 215.417,137.635 215.251,136.635 216,135.5C 220.736,131.815 220.569,128.482 215.5,125.5C 215.47,124.503 215.97,123.836 217,123.5C 218.643,124.315 220.143,125.315 221.5,126.5 Z"/></g>
<g><path style="opacity:1" fill="#373a5a" d="M 435.5,136.5 C 435.5,138.833 435.5,141.167 435.5,143.5C 434.85,143.196 434.183,142.863 433.5,142.5C 432.792,139.634 432.125,136.8 431.5,134C 430.056,133.219 428.723,133.386 427.5,134.5C 425.219,138.569 423.885,138.236 423.5,133.5C 422.167,133.5 420.833,133.5 419.5,133.5C 419.5,134.5 419.5,135.5 419.5,136.5C 418.357,136.908 417.357,137.575 416.5,138.5C 417.853,139.524 418.52,140.857 418.5,142.5C 399.137,141.846 380.137,142.513 361.5,144.5C 361.167,144.5 360.833,144.5 360.5,144.5C 360.5,143.833 360.5,143.167 360.5,142.5C 360.5,142.167 360.5,141.833 360.5,141.5C 360.337,139.143 360.503,136.81 361,134.5C 361.903,133.299 363.069,132.465 364.5,132C 386.833,131.333 409.167,131.333 431.5,132C 433.751,132.748 435.084,134.248 435.5,136.5 Z"/></g>
<g><path style="opacity:1" fill="#c8cdd7" d="M 365.5,136.5 C 374.5,136.5 383.5,136.5 392.5,136.5C 392.5,137.833 392.5,139.167 392.5,140.5C 383.827,140.666 375.16,140.5 366.5,140C 365.663,138.989 365.33,137.822 365.5,136.5 Z"/></g>
<g><path style="opacity:0.999" fill="#e8e7f6" d="M 229.5,139.5 C 237.658,146.466 246.324,152.966 255.5,159C 259.9,161.368 264.566,162.868 269.5,163.5C 273.917,164.869 275.583,167.869 274.5,172.5C 273.833,172.5 273.5,172.833 273.5,173.5C 271.447,173.402 269.78,174.069 268.5,175.5C 263.68,177.074 259.347,179.407 255.5,182.5C 247.434,185.567 242.1,191.234 239.5,199.5C 231.216,216.623 228.882,234.623 232.5,253.5C 224.139,256.216 216.805,260.549 210.5,266.5C 209.356,268.1 208.189,269.767 207,271.5C 206.501,276.823 206.334,282.156 206.5,287.5C 206.21,290.785 206.877,293.785 208.5,296.5C 199.188,296.006 191.021,292.673 184,286.5C 171.181,267.545 164.014,246.545 162.5,223.5C 165.206,223.425 167.873,223.092 170.5,222.5C 170.353,215.84 173.187,213.84 179,216.5C 180.605,215.899 181.938,214.899 183,213.5C 184.774,210.285 186.274,206.952 187.5,203.5C 186.653,202.155 185.487,201.155 184,200.5C 183.333,198.833 183.333,197.167 184,195.5C 186.048,194.902 187.215,193.569 187.5,191.5C 185.981,186.494 183.147,182.494 179,179.5C 177.527,179.903 176.194,180.57 175,181.5C 173.915,180.707 172.748,180.04 171.5,179.5C 170.865,176.901 169.865,174.568 168.5,172.5C 172.638,164.895 176.805,157.229 181,149.5C 184.226,147.131 186.392,144.131 187.5,140.5C 188.473,140.987 189.473,141.487 190.5,142C 202.5,142.667 214.5,142.667 226.5,142C 227.373,140.955 228.373,140.122 229.5,139.5 Z"/></g>
<g><path style="opacity:1" fill="#2c2b5f" d="M 435.5,143.5 C 411.006,144.498 386.339,144.831 361.5,144.5C 380.137,142.513 399.137,141.846 418.5,142.5C 418.52,140.857 417.853,139.524 416.5,138.5C 417.357,137.575 418.357,136.908 419.5,136.5C 419.5,135.5 419.5,134.5 419.5,133.5C 420.833,133.5 422.167,133.5 423.5,133.5C 423.885,138.236 425.219,138.569 427.5,134.5C 428.723,133.386 430.056,133.219 431.5,134C 432.125,136.8 432.792,139.634 433.5,142.5C 434.183,142.863 434.85,143.196 435.5,143.5 Z"/></g>
<g><path style="opacity:1" fill="#7c72d5" d="M 419.5,136.5 C 420.5,136.5 421.5,136.5 422.5,136.5C 422.5,137.833 422.5,139.167 422.5,140.5C 421.5,140.5 420.5,140.5 419.5,140.5C 419.5,139.167 419.5,137.833 419.5,136.5 Z"/></g>
<g><path style="opacity:1" fill="#796fd0" d="M 427.5,136.5 C 428.5,136.5 429.5,136.5 430.5,136.5C 430.5,137.833 430.5,139.167 430.5,140.5C 427.046,140.733 426.046,139.4 427.5,136.5 Z"/></g>
<g><path style="opacity:1" fill="#9182d6" d="M 435.5,136.5 C 436.833,156.5 436.833,176.5 435.5,196.5C 435.83,179.991 435.496,163.658 434.5,147.5C 410.523,145.51 386.19,144.843 361.5,145.5C 361.5,162.833 361.5,180.167 361.5,197.5C 360.503,180.008 360.17,162.341 360.5,144.5C 360.833,144.5 361.167,144.5 361.5,144.5C 386.339,144.831 411.006,144.498 435.5,143.5C 435.5,141.167 435.5,138.833 435.5,136.5 Z"/></g>
<g><path style="opacity:1" fill="#dfd8fd" d="M 360.5,142.5 C 360.5,143.167 360.5,143.833 360.5,144.5C 360.17,162.341 360.503,180.008 361.5,197.5C 361.5,198.167 361.5,198.833 361.5,199.5C 361.611,200.117 361.944,200.617 362.5,201C 385.498,201.5 408.498,201.667 431.5,201.5C 421.347,202.494 411.014,202.828 400.5,202.5C 386.921,202.823 373.421,202.49 360,201.5C 358.859,198.938 358.026,196.272 357.5,193.5C 358.801,178.848 358.801,164.181 357.5,149.5C 356.158,152.321 355.492,152.154 355.5,149C 355.68,146.759 356.513,146.259 358,147.5C 358.757,145.685 359.59,144.019 360.5,142.5 Z"/></g>
<g><path style="opacity:1" fill="#fcaf9d" d="M 302.5,139.5 C 303.596,141.103 304.93,142.603 306.5,144C 307.437,144.692 308.103,144.525 308.5,143.5C 309.5,143.5 310.5,143.5 311.5,143.5C 312.829,149.067 310.996,153.067 306,155.5C 304.827,159.536 302.993,163.202 300.5,166.5C 299.526,168.743 299.192,171.076 299.5,173.5C 299.5,174.833 299.5,176.167 299.5,177.5C 296.743,179.086 293.743,180.086 290.5,180.5C 285.629,180.808 280.963,179.975 276.5,178C 275.62,176.644 275.286,175.144 275.5,173.5C 288.416,174.368 288.416,173.034 275.5,169.5C 275.5,170.5 275.5,171.5 275.5,172.5C 275.167,172.5 274.833,172.5 274.5,172.5C 275.583,167.869 273.917,164.869 269.5,163.5C 268.347,161.193 267.18,158.86 266,156.5C 262.167,155.333 259.667,152.833 258.5,149C 259.423,146.14 260.423,143.307 261.5,140.5C 262.935,142.598 264.102,144.931 265,147.5C 267.489,145.531 269.322,143.198 270.5,140.5C 272.626,137.265 275.626,135.265 279.5,134.5C 286.095,135.883 292.762,136.716 299.5,137C 300.373,138.045 301.373,138.878 302.5,139.5 Z"/></g>
<g><path style="opacity:1" fill="#452d36" d="M 293.5,146.5 C 294.586,146.62 295.253,147.287 295.5,148.5C 295.167,149.167 294.833,149.833 294.5,150.5C 293.571,149.311 293.238,147.978 293.5,146.5 Z"/></g>
<g><path style="opacity:1" fill="#633c3f" d="M 278.5,146.5 C 281.709,147.297 282.209,148.963 280,151.5C 278.731,150.095 278.231,148.429 278.5,146.5 Z"/></g>
<g><path style="opacity:1" fill="#f88675" d="M 275.5,173.5 C 275.5,173.167 275.5,172.833 275.5,172.5C 275.5,171.5 275.5,170.5 275.5,169.5C 288.416,173.034 288.416,174.368 275.5,173.5 Z"/></g>
<g><path style="opacity:1" fill="#e493c4" d="M 273.5,173.5 C 273.5,172.833 273.833,172.5 274.5,172.5C 274.833,172.5 275.167,172.5 275.5,172.5C 275.5,172.833 275.5,173.167 275.5,173.5C 275.286,175.144 275.62,176.644 276.5,178C 280.963,179.975 285.629,180.808 290.5,180.5C 289.036,181.16 287.369,181.493 285.5,181.5C 282.02,181.418 278.687,180.752 275.5,179.5C 275.167,178.833 274.833,178.167 274.5,177.5C 274.768,175.901 274.434,174.568 273.5,173.5 Z"/></g>
<g><path style="opacity:1" fill="#a166d0" d="M 273.5,173.5 C 274.434,174.568 274.768,175.901 274.5,177.5C 272.886,175.925 270.886,175.259 268.5,175.5C 269.78,174.069 271.447,173.402 273.5,173.5 Z"/></g>
<g><path style="opacity:1" fill="#ba73cd" d="M 299.5,173.5 C 301.099,173.232 302.432,173.566 303.5,174.5C 302.167,175.5 300.833,176.5 299.5,177.5C 299.5,176.167 299.5,174.833 299.5,173.5 Z"/></g>
<g><path style="opacity:1" fill="#896bfc" d="M 255.5,182.5 C 256.111,185.721 257.278,188.721 259,191.5C 260.3,202.449 259.133,213.115 255.5,223.5C 260.792,224.495 266.125,224.828 271.5,224.5C 271.5,224.833 271.5,225.167 271.5,225.5C 264.833,225.5 258.167,225.5 251.5,225.5C 248.936,225.021 246.436,224.355 244,223.5C 243.667,223.833 243.333,224.167 243,224.5C 242.82,234.41 242.32,244.244 241.5,254C 244.384,257.597 245.218,261.764 244,266.5C 242.223,264.21 240.056,262.543 237.5,261.5C 235.992,259.819 234.992,257.819 234.5,255.5C 234.752,252.68 234.252,250.014 233,247.5C 232.163,236.409 232.829,225.409 235,214.5C 237.091,209.658 238.591,204.658 239.5,199.5C 242.1,191.234 247.434,185.567 255.5,182.5 Z"/></g>
<g><path style="opacity:1" fill="#896bfd" d="M 315.5,179.5 C 322.356,182.843 328.523,187.176 334,192.5C 334.608,194.154 335.108,195.821 335.5,197.5C 335.809,201.886 336.809,206.053 338.5,210C 337.427,215.51 337.594,221.01 339,226.5C 339.284,224.114 340.284,223.448 342,224.5C 344.209,234.36 345.042,244.36 344.5,254.5C 342.484,255.486 341.151,257.153 340.5,259.5C 337.268,261.223 333.935,262.556 330.5,263.5C 332.03,250.664 332.697,237.664 332.5,224.5C 328.167,224.5 323.833,224.5 319.5,224.5C 314.838,210.589 314.505,196.589 318.5,182.5C 317.5,182.5 316.5,182.5 315.5,182.5C 315.5,181.5 315.5,180.5 315.5,179.5 Z"/></g>
<g><path style="opacity:1" fill="#886cfb" d="M 434.5,147.5 C 434.833,164.513 434.499,181.513 433.5,198.5C 432.692,198.808 432.025,199.308 431.5,200C 408.124,200.813 384.791,200.646 361.5,199.5C 361.5,198.833 361.5,198.167 361.5,197.5C 361.5,180.167 361.5,162.833 361.5,145.5C 386.19,144.843 410.523,145.51 434.5,147.5 Z"/></g>
<g><path style="opacity:1" fill="#e6ddfd" d="M 390.5,189.5 C 382.427,190.132 374.76,189.465 367.5,187.5C 375.087,186.369 382.754,186.202 390.5,187C 391.598,187.77 391.598,188.603 390.5,189.5 Z"/></g>
<g><path style="opacity:1" fill="#9481de" d="M 390.5,189.5 C 391.598,188.603 391.598,187.77 390.5,187C 382.754,186.202 375.087,186.369 367.5,187.5C 375.433,185.532 383.766,184.865 392.5,185.5C 392.843,187.483 392.176,188.817 390.5,189.5 Z"/></g>
<g><path style="opacity:1" fill="#8a78dc" d="M 425.5,179.5 C 409.167,179.5 392.833,179.5 376.5,179.5C 376.5,180.5 376.5,181.5 376.5,182.5C 392.5,182.5 408.5,182.5 424.5,182.5C 408.342,183.496 392.009,183.83 375.5,183.5C 375.5,181.833 375.5,180.167 375.5,178.5C 392.342,178.17 409.008,178.503 425.5,179.5 Z"/></g>
<g><path style="opacity:1" fill="#e5ddfd" d="M 425.5,179.5 C 425.737,180.791 425.404,181.791 424.5,182.5C 408.5,182.5 392.5,182.5 376.5,182.5C 376.5,181.5 376.5,180.5 376.5,179.5C 392.833,179.5 409.167,179.5 425.5,179.5 Z"/></g>
<g><path style="opacity:1" fill="#e4ddfc" d="M 386.5,172.5 C 395.167,172.5 403.833,172.5 412.5,172.5C 412.5,173.5 412.5,174.5 412.5,175.5C 404.167,175.5 395.833,175.5 387.5,175.5C 386.596,174.791 386.263,173.791 386.5,172.5 Z"/></g>
<g><path style="opacity:1" fill="#8972e8" d="M 375.5,169.5 C 388.833,169.5 402.167,169.5 415.5,169.5C 413.832,171.479 413.166,173.812 413.5,176.5C 404.651,176.826 395.984,176.493 387.5,175.5C 395.833,175.5 404.167,175.5 412.5,175.5C 412.5,174.5 412.5,173.5 412.5,172.5C 403.833,172.5 395.167,172.5 386.5,172.5C 386.611,171.883 386.944,171.383 387.5,171C 383.312,170.824 379.312,170.324 375.5,169.5 Z"/></g>
<g><path style="opacity:1" fill="#8d7adc" d="M 415.5,165.5 C 402.5,165.5 389.5,165.5 376.5,165.5C 376.5,166.5 376.5,167.5 376.5,168.5C 390.5,168.5 404.5,168.5 418.5,168.5C 417.791,169.404 416.791,169.737 415.5,169.5C 402.167,169.5 388.833,169.5 375.5,169.5C 375.5,167.833 375.5,166.167 375.5,164.5C 389.01,164.171 402.344,164.504 415.5,165.5 Z"/></g>
<g><path style="opacity:1" fill="#e4dcfd" d="M 415.5,165.5 C 416.5,165.5 417.5,165.5 418.5,165.5C 418.5,166.5 418.5,167.5 418.5,168.5C 404.5,168.5 390.5,168.5 376.5,168.5C 376.5,167.5 376.5,166.5 376.5,165.5C 389.5,165.5 402.5,165.5 415.5,165.5 Z"/></g>
<g><path style="opacity:1" fill="#8d77e6" d="M 376.5,158.5 C 376.5,159.5 376.5,160.5 376.5,161.5C 385.5,161.5 394.5,161.5 403.5,161.5C 394.343,162.658 385.009,162.824 375.5,162C 374.015,160.244 374.348,159.077 376.5,158.5 Z"/></g>
<g><path style="opacity:1" fill="#e5defc" d="M 376.5,158.5 C 385.5,158.5 394.5,158.5 403.5,158.5C 403.5,159.5 403.5,160.5 403.5,161.5C 394.5,161.5 385.5,161.5 376.5,161.5C 376.5,160.5 376.5,159.5 376.5,158.5 Z"/></g>
<g><path style="opacity:1" fill="#8d77e5" d="M 411.5,151.5 C 413.71,152.455 414.043,153.955 412.5,156C 409.167,156.333 405.833,156.667 402.5,157C 403.056,157.383 403.389,157.883 403.5,158.5C 394.5,158.5 385.5,158.5 376.5,158.5C 373.5,157.167 370.5,155.833 367.5,154.5C 382.515,154.833 397.515,154.499 412.5,153.5C 412.137,152.817 411.804,152.15 411.5,151.5 Z"/></g>
<g><path style="opacity:1" fill="#e3d9fd" d="M 411.5,151.5 C 411.804,152.15 412.137,152.817 412.5,153.5C 397.515,154.499 382.515,154.833 367.5,154.5C 367.5,153.5 367.5,152.5 367.5,151.5C 382.167,151.5 396.833,151.5 411.5,151.5 Z"/></g>
<g><path style="opacity:0.999" fill="#e9e8f6" d="M 360.5,141.5 C 360.5,141.833 360.5,142.167 360.5,142.5C 359.59,144.019 358.757,145.685 358,147.5C 356.513,146.259 355.68,146.759 355.5,149C 355.492,152.154 356.158,152.321 357.5,149.5C 358.801,164.181 358.801,178.848 357.5,193.5C 358.026,196.272 358.859,198.938 360,201.5C 373.421,202.49 386.921,202.823 400.5,202.5C 404.996,228.711 397.996,251.211 379.5,270C 377.102,271.524 374.769,273.024 372.5,274.5C 370.837,267.847 366.837,263.18 360.5,260.5C 356.5,258.833 352.5,257.167 348.5,255.5C 347.6,245.679 346.766,235.679 346,225.5C 343.536,219.635 342.703,213.635 343.5,207.5C 342.5,207.5 341.5,207.5 340.5,207.5C 340.66,205.801 340.494,204.134 340,202.5C 337.895,197.953 336.061,193.287 334.5,188.5C 331.213,187.736 328.546,185.903 326.5,183C 321.898,180.857 317.231,179.023 312.5,177.5C 309.402,176.784 306.402,175.784 303.5,174.5C 302.432,173.566 301.099,173.232 299.5,173.5C 299.192,171.076 299.526,168.743 300.5,166.5C 302.993,163.202 304.827,159.536 306,155.5C 310.996,153.067 312.829,149.067 311.5,143.5C 310.5,143.5 309.5,143.5 308.5,143.5C 308.328,142.508 308.662,141.842 309.5,141.5C 310.265,141.923 311.098,142.257 312,142.5C 328.025,134.863 344.192,134.529 360.5,141.5 Z"/></g>
<g><path style="opacity:1" fill="#e7dcfd" d="M 375.5,193.5 C 387.833,193.5 400.167,193.5 412.5,193.5C 412.5,194.5 412.5,195.5 412.5,196.5C 411.5,196.5 410.5,196.5 409.5,196.5C 398.495,196.667 387.495,196.5 376.5,196C 375.748,195.329 375.414,194.496 375.5,193.5 Z"/></g>
<g><path style="opacity:1" fill="#8976d7" d="M 375.5,193.5 C 375.414,194.496 375.748,195.329 376.5,196C 387.495,196.5 398.495,196.667 409.5,196.5C 398.341,197.659 387.008,197.826 375.5,197C 374.209,195.708 374.209,194.542 375.5,193.5 Z"/></g>
<g><path style="opacity:1" fill="#8871e6" d="M 434.5,147.5 C 435.496,163.658 435.83,179.991 435.5,196.5C 435.631,199.367 434.297,201.033 431.5,201.5C 408.498,201.667 385.498,201.5 362.5,201C 361.944,200.617 361.611,200.117 361.5,199.5C 384.791,200.646 408.124,200.813 431.5,200C 432.025,199.308 432.692,198.808 433.5,198.5C 434.499,181.513 434.833,164.513 434.5,147.5 Z"/></g>
<g><path style="opacity:1" fill="#927ce9" d="M 239.5,199.5 C 238.591,204.658 237.091,209.658 235,214.5C 232.829,225.409 232.163,236.409 233,247.5C 234.252,250.014 234.752,252.68 234.5,255.5C 233.833,254.833 233.167,254.167 232.5,253.5C 228.882,234.623 231.216,216.623 239.5,199.5 Z"/></g>
<g><path style="opacity:1" fill="#893ffc" d="M 303.5,174.5 C 306.402,175.784 309.402,176.784 312.5,177.5C 313.29,178.401 314.29,179.068 315.5,179.5C 315.5,180.5 315.5,181.5 315.5,182.5C 316.5,182.5 317.5,182.5 318.5,182.5C 314.505,196.589 314.838,210.589 319.5,224.5C 303.5,224.5 287.5,224.5 271.5,224.5C 266.125,224.828 260.792,224.495 255.5,223.5C 259.133,213.115 260.3,202.449 259,191.5C 257.278,188.721 256.111,185.721 255.5,182.5C 259.347,179.407 263.68,177.074 268.5,175.5C 270.886,175.259 272.886,175.925 274.5,177.5C 274.833,178.167 275.167,178.833 275.5,179.5C 275.918,180.222 276.584,180.722 277.5,181C 277.167,181.333 276.833,181.667 276.5,182C 283.715,183.113 290.715,182.446 297.5,180C 298.381,179.292 299.047,178.458 299.5,177.5C 300.833,176.5 302.167,175.5 303.5,174.5 Z"/></g>
<g><path style="opacity:1" fill="#9848d5" d="M 299.5,177.5 C 299.047,178.458 298.381,179.292 297.5,180C 290.715,182.446 283.715,183.113 276.5,182C 276.833,181.667 277.167,181.333 277.5,181C 276.584,180.722 275.918,180.222 275.5,179.5C 278.687,180.752 282.02,181.418 285.5,181.5C 287.369,181.493 289.036,181.16 290.5,180.5C 293.743,180.086 296.743,179.086 299.5,177.5 Z"/></g>
<g><path style="opacity:1" fill="#e6defc" d="M 312.5,177.5 C 317.231,179.023 321.898,180.857 326.5,183C 328.546,185.903 331.213,187.736 334.5,188.5C 336.061,193.287 337.895,197.953 340,202.5C 340.494,204.134 340.66,205.801 340.5,207.5C 341.5,207.5 342.5,207.5 343.5,207.5C 342.703,213.635 343.536,219.635 346,225.5C 346.766,235.679 347.6,245.679 348.5,255.5C 347.391,255.443 346.391,255.11 345.5,254.5C 346.774,234.552 343.441,215.552 335.5,197.5C 335.108,195.821 334.608,194.154 334,192.5C 328.523,187.176 322.356,182.843 315.5,179.5C 314.29,179.068 313.29,178.401 312.5,177.5 Z"/></g>
<g><path style="opacity:1" fill="#414664" d="M 168.5,172.5 C 169.865,174.568 170.865,176.901 171.5,179.5C 172.748,180.04 173.915,180.707 175,181.5C 176.194,180.57 177.527,179.903 179,179.5C 183.147,182.494 185.981,186.494 187.5,191.5C 187.215,193.569 186.048,194.902 184,195.5C 183.333,197.167 183.333,198.833 184,200.5C 185.487,201.155 186.653,202.155 187.5,203.5C 186.274,206.952 184.774,210.285 183,213.5C 181.938,214.899 180.605,215.899 179,216.5C 173.187,213.84 170.353,215.84 170.5,222.5C 167.873,223.092 165.206,223.425 162.5,223.5C 159.794,223.425 157.127,223.092 154.5,222.5C 154.462,216.064 151.628,214.398 146,217.5C 141.522,214.047 138.689,209.547 137.5,204C 139.409,202.38 140.743,200.38 141.5,198C 140.743,195.62 139.409,193.62 137.5,192C 138.689,186.453 141.522,181.953 146,178.5C 148.667,181.167 151.333,181.167 154,178.5C 154.251,176.567 154.751,174.734 155.5,173C 159.821,172.501 164.154,172.334 168.5,172.5 Z M 163.5,185.5 C 164.043,186.742 164.377,188.075 164.5,189.5C 163.339,196.122 162.672,202.789 162.5,209.5C 161.5,209.5 160.5,209.5 159.5,209.5C 151.698,206.282 149.198,200.616 152,192.5C 154.476,188.009 158.309,185.676 163.5,185.5 Z"/></g>
<g><path style="opacity:0.987" fill="#e7e7f5" d="M 163.5,185.5 C 172.545,187.57 176.045,193.236 174,202.5C 170.699,208.572 165.866,210.905 159.5,209.5C 160.5,209.5 161.5,209.5 162.5,209.5C 162.672,202.789 163.339,196.122 164.5,189.5C 164.377,188.075 164.043,186.742 163.5,185.5 Z"/></g>
<g><path style="opacity:1" fill="#8d75f0" d="M 335.5,197.5 C 343.441,215.552 346.774,234.552 345.5,254.5C 345.167,254.5 344.833,254.5 344.5,254.5C 345.042,244.36 344.209,234.36 342,224.5C 340.284,223.448 339.284,224.114 339,226.5C 337.594,221.01 337.427,215.51 338.5,210C 336.809,206.053 335.809,201.886 335.5,197.5 Z"/></g>
<g><path style="opacity:1" fill="#cfc5ed" d="M 251.5,226.5 C 251.5,226.167 251.5,225.833 251.5,225.5C 258.167,225.5 264.833,225.5 271.5,225.5C 291.569,224.968 311.569,225.634 331.5,227.5C 330.906,237.017 329.906,246.35 328.5,255.5C 328.296,246.422 328.963,237.422 330.5,228.5C 304.245,226.632 277.912,225.965 251.5,226.5 Z"/></g>
<g><path style="opacity:1" fill="#cbc4ea" d="M 250.5,226.5 C 247.177,227.02 245.511,229.02 245.5,232.5C 246.167,243.833 246.833,255.167 247.5,266.5C 247.48,267.726 247.147,268.726 246.5,269.5C 246.5,268.833 246.167,268.5 245.5,268.5C 245.5,263.167 245.5,257.833 245.5,252.5C 245.477,246.288 244.81,240.288 243.5,234.5C 241.762,228.073 244.095,225.406 250.5,226.5 Z"/></g>
<g><path style="opacity:1" fill="#ced2d3" d="M 250.5,226.5 C 250.833,226.5 251.167,226.5 251.5,226.5C 277.912,225.965 304.245,226.632 330.5,228.5C 328.963,237.422 328.296,246.422 328.5,255.5C 328.5,259.167 328.5,262.833 328.5,266.5C 328.5,267.5 328.5,268.5 328.5,269.5C 327.527,271.948 327.194,274.615 327.5,277.5C 311.506,278 295.506,278.333 279.5,278.5C 268.274,278.478 257.274,277.811 246.5,276.5C 246.5,274.167 246.5,271.833 246.5,269.5C 247.147,268.726 247.48,267.726 247.5,266.5C 246.833,255.167 246.167,243.833 245.5,232.5C 245.511,229.02 247.177,227.02 250.5,226.5 Z"/></g>
<g><path style="opacity:1" fill="#866feb" d="M 251.5,225.5 C 251.5,225.833 251.5,226.167 251.5,226.5C 251.167,226.5 250.833,226.5 250.5,226.5C 244.095,225.406 241.762,228.073 243.5,234.5C 243.276,240.739 243.943,246.739 245.5,252.5C 245.5,257.833 245.5,263.167 245.5,268.5C 242.216,266.883 239.549,264.55 237.5,261.5C 240.056,262.543 242.223,264.21 244,266.5C 245.218,261.764 244.384,257.597 241.5,254C 242.32,244.244 242.82,234.41 243,224.5C 243.333,224.167 243.667,223.833 244,223.5C 246.436,224.355 248.936,225.021 251.5,225.5 Z"/></g>
<g><path style="opacity:1" fill="#a193e6" d="M 243.5,234.5 C 244.81,240.288 245.477,246.288 245.5,252.5C 243.943,246.739 243.276,240.739 243.5,234.5 Z"/></g>
<g><path style="opacity:1" fill="#2b2f54" d="M 232.5,253.5 C 233.167,254.167 233.833,254.833 234.5,255.5C 234.992,257.819 235.992,259.819 237.5,261.5C 239.549,264.55 242.216,266.883 245.5,268.5C 246.167,268.5 246.5,268.833 246.5,269.5C 246.5,271.833 246.5,274.167 246.5,276.5C 246.5,276.833 246.5,277.167 246.5,277.5C 238.983,274.537 231.316,272.037 223.5,270C 219.577,269.207 215.744,269.374 212,270.5C 211.209,269.255 210.709,267.922 210.5,266.5C 216.805,260.549 224.139,256.216 232.5,253.5 Z"/></g>
<g><path style="opacity:1" fill="#2a2e54" d="M 344.5,254.5 C 344.833,254.5 345.167,254.5 345.5,254.5C 346.391,255.11 347.391,255.443 348.5,255.5C 352.5,257.167 356.5,258.833 360.5,260.5C 361.043,264.046 363.043,266.379 366.5,267.5C 353.633,269.764 340.967,272.764 328.5,276.5C 328.5,274.167 328.5,271.833 328.5,269.5C 328.5,268.5 328.5,267.5 328.5,266.5C 333.182,265.272 337.516,263.272 341.5,260.5C 343.038,258.757 344.038,256.757 344.5,254.5 Z"/></g>
<g><path style="opacity:1" fill="#8b73e7" d="M 271.5,225.5 C 271.5,225.167 271.5,224.833 271.5,224.5C 287.5,224.5 303.5,224.5 319.5,224.5C 323.833,224.5 328.167,224.5 332.5,224.5C 332.697,237.664 332.03,250.664 330.5,263.5C 333.935,262.556 337.268,261.223 340.5,259.5C 341.151,257.153 342.484,255.486 344.5,254.5C 344.038,256.757 343.038,258.757 341.5,260.5C 337.516,263.272 333.182,265.272 328.5,266.5C 328.5,262.833 328.5,259.167 328.5,255.5C 329.906,246.35 330.906,237.017 331.5,227.5C 311.569,225.634 291.569,224.968 271.5,225.5 Z"/></g>
<g><path style="opacity:1" fill="#3e4463" d="M 360.5,260.5 C 366.837,263.18 370.837,267.847 372.5,274.5C 372.5,277.833 372.5,281.167 372.5,284.5C 371.492,289.677 368.492,293.177 363.5,295C 347.767,303.365 331.434,310.365 314.5,316C 312.03,316.74 310.363,318.24 309.5,320.5C 309.649,319.448 309.483,318.448 309,317.5C 303.56,319.8 297.893,321.467 292,322.5C 290.923,321.571 289.756,320.904 288.5,320.5C 288.663,318.143 288.497,315.81 288,313.5C 287.315,309.461 286.148,305.795 284.5,302.5C 282.777,301.2 280.61,300.533 278,300.5C 268.813,300.786 260.313,303.286 252.5,308C 250.174,309.805 248.508,311.972 247.5,314.5C 247.586,313.504 247.252,312.671 246.5,312C 234.596,307.049 223.263,301.049 212.5,294C 210.266,291.937 208.266,289.771 206.5,287.5C 206.334,282.156 206.501,276.823 207,271.5C 208.189,269.767 209.356,268.1 210.5,266.5C 210.709,267.922 211.209,269.255 212,270.5C 215.744,269.374 219.577,269.207 223.5,270C 231.316,272.037 238.983,274.537 246.5,277.5C 246.5,279.167 246.5,280.833 246.5,282.5C 273.5,282.5 300.5,282.5 327.5,282.5C 327.517,280.435 327.85,278.435 328.5,276.5C 340.967,272.764 353.633,269.764 366.5,267.5C 363.043,266.379 361.043,264.046 360.5,260.5 Z"/></g>
<g><path style="opacity:1" fill="#292f51" d="M 261.5,283.5 C 278.17,283.333 294.837,283.5 311.5,284C 302.831,288.007 294.664,292.84 287,298.5C 278.456,293.312 269.623,288.812 260.5,285C 261.056,284.617 261.389,284.117 261.5,283.5 Z"/></g>
<g><path style="opacity:1" fill="#a0a6b1" d="M 328.5,269.5 C 328.5,271.833 328.5,274.167 328.5,276.5C 327.85,278.435 327.517,280.435 327.5,282.5C 300.5,282.5 273.5,282.5 246.5,282.5C 246.5,280.833 246.5,279.167 246.5,277.5C 246.5,277.167 246.5,276.833 246.5,276.5C 257.274,277.811 268.274,278.478 279.5,278.5C 295.506,278.333 311.506,278 327.5,277.5C 327.194,274.615 327.527,271.948 328.5,269.5 Z"/></g>
<g><path style="opacity:1" fill="#7143cd" d="M 284.5,307.5 C 283.596,306.791 283.263,305.791 283.5,304.5C 278.184,305.296 272.851,305.963 267.5,306.5C 268.833,305.833 270.167,305.167 271.5,304.5C 275.768,303.627 280.102,303.294 284.5,303.5C 284.5,304.833 284.5,306.167 284.5,307.5 Z"/></g>
<g><path style="opacity:1" fill="#45397e" d="M 284.5,302.5 C 286.148,305.795 287.315,309.461 288,313.5C 288.497,315.81 288.663,318.143 288.5,320.5C 288.5,321.167 288.167,321.5 287.5,321.5C 287.027,316.613 286.027,311.946 284.5,307.5C 284.5,306.167 284.5,304.833 284.5,303.5C 280.102,303.294 275.768,303.627 271.5,304.5C 275.373,302.57 279.706,301.903 284.5,302.5 Z"/></g>
<g><path style="opacity:1" fill="#6441b3" d="M 264.5,307.5 C 263.631,309.717 263.298,312.05 263.5,314.5C 262.833,313.5 262.167,312.5 261.5,311.5C 261.088,309.027 262.088,307.694 264.5,307.5 Z"/></g>
<g><path style="opacity:1" fill="#d7d7e5" d="M 206.5,287.5 C 208.266,289.771 210.266,291.937 212.5,294C 223.263,301.049 234.596,307.049 246.5,312C 247.252,312.671 247.586,313.504 247.5,314.5C 247.5,317.167 247.5,319.833 247.5,322.5C 231.99,317.58 218.99,308.913 208.5,296.5C 206.877,293.785 206.21,290.785 206.5,287.5 Z"/></g>
<g><path style="opacity:1" fill="#883ffa" d="M 284.5,307.5 C 286.027,311.946 287.027,316.613 287.5,321.5C 282.274,323.241 276.941,324.575 271.5,325.5C 269.5,325.5 267.5,325.5 265.5,325.5C 265.678,321.878 265.011,318.544 263.5,315.5C 263.5,315.167 263.5,314.833 263.5,314.5C 263.298,312.05 263.631,309.717 264.5,307.5C 265.391,306.89 266.391,306.557 267.5,306.5C 272.851,305.963 278.184,305.296 283.5,304.5C 283.263,305.791 283.596,306.791 284.5,307.5 Z"/></g>
<g><path style="opacity:0.998" fill="#d7d7e5" d="M 372.5,284.5 C 374.336,290.021 373.17,295.021 369,299.5C 350.554,316.805 328.721,327.305 303.5,331C 290.838,331.5 278.171,331.667 265.5,331.5C 272.592,330.272 279.592,328.272 286.5,325.5C 292.738,327.27 299.071,327.77 305.5,327C 307.734,325.362 309.067,323.195 309.5,320.5C 310.363,318.24 312.03,316.74 314.5,316C 331.434,310.365 347.767,303.365 363.5,295C 368.492,293.177 371.492,289.677 372.5,284.5 Z"/></g>
<g><path style="opacity:1" fill="#2c3153" d="M 284.5,302.5 C 279.706,301.903 275.373,302.57 271.5,304.5C 270.167,305.167 268.833,305.833 267.5,306.5C 266.391,306.557 265.391,306.89 264.5,307.5C 262.088,307.694 261.088,309.027 261.5,311.5C 261.999,316.492 262.499,321.492 263,326.5C 263.5,327 264,327.5 264.5,328C 272.314,327.475 279.981,326.308 287.5,324.5C 287.5,323.5 287.5,322.5 287.5,321.5C 288.167,321.5 288.5,321.167 288.5,320.5C 289.756,320.904 290.923,321.571 292,322.5C 297.893,321.467 303.56,319.8 309,317.5C 309.483,318.448 309.649,319.448 309.5,320.5C 309.067,323.195 307.734,325.362 305.5,327C 299.071,327.77 292.738,327.27 286.5,325.5C 279.592,328.272 272.592,330.272 265.5,331.5C 261.486,331.666 257.486,331.499 253.5,331C 249.735,329.403 247.735,326.57 247.5,322.5C 247.5,319.833 247.5,317.167 247.5,314.5C 248.508,311.972 250.174,309.805 252.5,308C 260.313,303.286 268.813,300.786 278,300.5C 280.61,300.533 282.777,301.2 284.5,302.5 Z"/></g>
<g><path style="opacity:1" fill="#643cb4" d="M 263.5,315.5 C 265.011,318.544 265.678,321.878 265.5,325.5C 267.5,325.5 269.5,325.5 271.5,325.5C 269.105,326.814 266.605,326.814 264,325.5C 263.502,322.183 263.335,318.85 263.5,315.5 Z"/></g>
<g><path style="opacity:1" fill="#352769" d="M 261.5,311.5 C 262.167,312.5 262.833,313.5 263.5,314.5C 263.5,314.833 263.5,315.167 263.5,315.5C 263.335,318.85 263.502,322.183 264,325.5C 266.605,326.814 269.105,326.814 271.5,325.5C 276.941,324.575 282.274,323.241 287.5,321.5C 287.5,322.5 287.5,323.5 287.5,324.5C 279.981,326.308 272.314,327.475 264.5,328C 264,327.5 263.5,327 263,326.5C 262.499,321.492 261.999,316.492 261.5,311.5 Z"/></g>
</svg>
